<svg width="86" height="86" viewBox="0 0 86 86" fill="none" xmlns="http://www.w3.org/2000/svg">
<path d="M43.0109 43.011C49.64 43.011 55.0139 37.637 55.0139 31.0079C55.0139 24.3788 49.64 19.0049 43.0109 19.0049C36.3818 19.0049 31.0078 24.3788 31.0078 31.0079C31.0078 37.637 36.3818 43.011 43.0109 43.011Z" stroke="#4672F1" stroke-width="5"/>
<path d="M66.8944 75.0173C66.2579 63.4484 62.7158 55.0122 43.0115 55.0122C23.3078 55.0122 19.7657 63.4484 19.1289 75.0173" stroke="#4672F1" stroke-width="5" stroke-linecap="round"/>
<path d="M23.0051 8.35264C28.8901 4.94838 35.7227 3 43.0102 3C65.107 3 83.0204 20.9132 83.0204 43.0102C83.0204 65.107 65.107 83.0204 43.0102 83.0204C20.9132 83.0204 3 65.107 3 43.0102C3 35.7227 4.94838 28.8901 8.35264 23.0051" stroke="#4672F1" stroke-width="5" stroke-linecap="round"/>
</svg>
