<svg width="30" height="31" viewBox="0 0 30 31" fill="none" xmlns="http://www.w3.org/2000/svg">
<path fill-rule="evenodd" clip-rule="evenodd" d="M6.27907 15.327C6.27907 14.3314 6.44442 13.377 6.73953 12.4817L1.57395 8.53711C0.567209 10.5812 0 12.8844 0 15.327C0 17.7675 0.566512 20.0693 1.57186 22.112L6.73465 18.1597C6.44233 17.2687 6.27907 16.3177 6.27907 15.327Z" fill="#FBBC05"/>
<path fill-rule="evenodd" clip-rule="evenodd" d="M15.3472 6.27016C17.5099 6.27016 19.4634 7.03652 20.9983 8.29055L25.4634 3.83177C22.7425 1.46304 19.2541 0 15.3472 0C9.28157 0 4.06855 3.46879 1.57227 8.53718L6.73785 12.4818C7.92808 8.8688 11.3209 6.27016 15.3472 6.27016Z" fill="#EB4335"/>
<path fill-rule="evenodd" clip-rule="evenodd" d="M15.3471 24.3839C11.3209 24.3839 7.92808 21.7852 6.73785 18.1722L1.57227 22.1162C4.06854 27.1853 9.28157 30.654 15.3471 30.654C19.0909 30.654 22.6651 29.3248 25.3476 26.8341L20.4444 23.0435C19.0609 23.915 17.3188 24.3839 15.3471 24.3839Z" fill="#34A853"/>
<path fill-rule="evenodd" clip-rule="evenodd" d="M29.9988 15.327C29.9988 14.4213 29.8593 13.446 29.65 12.5403H15.3477V18.4621H23.5802C23.1686 20.4811 22.0481 22.0333 20.4449 23.0435L25.3481 26.8342C28.166 24.2188 29.9988 20.3229 29.9988 15.327Z" fill="#4285F4"/>
</svg>
