<svg width="31" height="31" viewBox="0 0 31 31" fill="none" xmlns="http://www.w3.org/2000/svg">
<path d="M29.2612 13.303C29.6796 13.251 29.9786 12.8692 29.9055 12.4539C29.3155 9.1029 27.6063 6.04168 25.0457 3.77822C22.2941 1.34584 18.7487 0.00225234 15.0761 2.82631e-06C11.4035 -0.00224668 7.85653 1.337 5.10189 3.76601C2.53856 6.02632 0.825609 9.08544 0.231504 12.4358C0.157889 12.8509 0.456411 13.2331 0.874735 13.2856C1.29306 13.3381 1.67256 13.0409 1.74854 12.6262C2.29475 9.64522 3.82753 6.92529 6.11167 4.91116C8.58718 2.72829 11.7747 1.52475 15.0752 1.52677C18.3756 1.52879 21.5617 2.73623 24.0345 4.92213C26.3162 6.93907 27.8457 9.66087 28.3882 12.6425C28.4637 13.0573 28.8428 13.355 29.2612 13.303Z" fill="#F6F6F6"/>
<path d="M29.2612 16.8308C29.6796 16.8828 29.9786 17.2646 29.9055 17.6799C29.3155 21.0309 27.6063 24.0921 25.0457 26.3556C22.2941 28.7879 18.7487 30.1315 15.0761 30.1338C11.4035 30.136 7.85653 28.7968 5.10189 26.3678C2.53856 24.1075 0.825609 21.0483 0.231504 17.698C0.157889 17.2829 0.456411 16.9007 0.874735 16.8482C1.29306 16.7957 1.67256 17.0929 1.74854 17.5076C2.29475 20.4886 3.82753 23.2085 6.11167 25.2226C8.58718 27.4055 11.7747 28.609 15.0752 28.607C18.3756 28.605 21.5617 27.3976 24.0345 25.2117C26.3162 23.1947 27.8457 20.4729 28.3882 17.4912C28.4637 17.0764 28.8428 16.7788 29.2612 16.8308Z" fill="#F6F6F6"/>
<path d="M25.2594 15.2884C25.2594 21.0398 20.597 25.7023 14.8455 25.7023C9.09409 25.7023 4.43164 21.0398 4.43164 15.2884C4.43164 9.53697 9.09409 4.87451 14.8455 4.87451C20.597 4.87451 25.2594 9.53697 25.2594 15.2884ZM6.9358 15.2884C6.9358 19.6568 10.4771 23.1981 14.8455 23.1981C19.2139 23.1981 22.7552 19.6568 22.7552 15.2884C22.7552 10.92 19.2139 7.37868 14.8455 7.37868C10.4771 7.37868 6.9358 10.92 6.9358 15.2884Z" fill="#F6F6F6"/>
<circle cx="15" cy="15" r="6" fill="#F6F6F6"/>
<path d="M14.9227 18.1364V11.7727H15.3303V18.1364H14.9227ZM16.004 13.8732C15.9841 13.6727 15.8988 13.5169 15.748 13.4059C15.5972 13.2949 15.3925 13.2393 15.134 13.2393C14.9583 13.2393 14.81 13.2642 14.689 13.3139C14.568 13.362 14.4752 13.4291 14.4106 13.5153C14.3476 13.6014 14.3161 13.6992 14.3161 13.8086C14.3128 13.8997 14.3319 13.9793 14.3733 14.0472C14.4164 14.1152 14.4752 14.174 14.5498 14.2237C14.6244 14.2718 14.7106 14.314 14.8083 14.3505C14.9061 14.3853 15.0105 14.4151 15.1215 14.44L15.5789 14.5494C15.801 14.5991 16.0048 14.6654 16.1904 14.7482C16.376 14.8311 16.5368 14.933 16.6727 15.054C16.8086 15.175 16.9138 15.3175 16.9884 15.4815C17.0646 15.6456 17.1035 15.8337 17.1052 16.0458C17.1035 16.3574 17.024 16.6275 16.8666 16.8562C16.7108 17.0832 16.4854 17.2597 16.1904 17.3857C15.8971 17.5099 15.5433 17.5721 15.129 17.5721C14.718 17.5721 14.3601 17.5091 14.0551 17.3832C13.7519 17.2572 13.5149 17.0708 13.3442 16.8239C13.1752 16.5753 13.0865 16.2679 13.0782 15.9016H14.1198C14.1314 16.0723 14.1802 16.2148 14.2664 16.3292C14.3543 16.4419 14.4711 16.5272 14.6169 16.5852C14.7644 16.6416 14.931 16.6697 15.1166 16.6697C15.2989 16.6697 15.4571 16.6432 15.5914 16.5902C15.7272 16.5372 15.8325 16.4634 15.907 16.369C15.9816 16.2745 16.0189 16.166 16.0189 16.0433C16.0189 15.929 15.9849 15.8329 15.917 15.755C15.8507 15.6771 15.7529 15.6108 15.6237 15.5561C15.4961 15.5014 15.3395 15.4517 15.1539 15.407L14.5995 15.2678C14.1703 15.1634 13.8314 15.0001 13.5828 14.7781C13.3343 14.556 13.2108 14.2569 13.2124 13.8807C13.2108 13.5724 13.2928 13.3031 13.4585 13.0728C13.6259 12.8424 13.8554 12.6626 14.1471 12.5334C14.4388 12.4041 14.7702 12.3395 15.1414 12.3395C15.5193 12.3395 15.849 12.4041 16.1308 12.5334C16.4142 12.6626 16.6346 12.8424 16.792 13.0728C16.9494 13.3031 17.0306 13.57 17.0356 13.8732H16.004Z" fill="#1E3A8A"/>
</svg>
