<svg width="127" height="131" viewBox="0 0 127 131" fill="none" xmlns="http://www.w3.org/2000/svg">
<path fill-rule="evenodd" clip-rule="evenodd" d="M18.6974 34.4645C17.7834 34.4645 16.9067 34.8276 16.2604 35.4739C15.6141 36.1202 15.251 36.9969 15.251 37.9109C15.251 38.825 15.6141 39.7016 16.2604 40.3479C16.9067 40.9943 17.7834 41.3574 18.6974 41.3574C19.6115 41.3574 20.4881 40.9943 21.1344 40.3479C21.7808 39.7016 22.1439 38.825 22.1439 37.9109C22.1439 36.9969 21.7808 36.1202 21.1344 35.4739C20.4881 34.8276 19.6115 34.4645 18.6974 34.4645Z" fill="#1E3A8A"/>
<path fill-rule="evenodd" clip-rule="evenodd" d="M108.305 34.4645C107.391 34.4645 106.514 34.8276 105.868 35.4739C105.222 36.1202 104.858 36.9969 104.858 37.9109C104.858 38.825 105.222 39.7016 105.868 40.3479C106.514 40.9943 107.391 41.3574 108.305 41.3574C109.219 41.3574 110.096 40.9943 110.742 40.3479C111.388 39.7016 111.751 38.825 111.751 37.9109C111.751 36.9969 111.388 36.1202 110.742 35.4739C110.096 34.8276 109.219 34.4645 108.305 34.4645Z" fill="#1E3A8A"/>
<path fill-rule="evenodd" clip-rule="evenodd" d="M91.0723 79.2683L108.304 44.8038L125.537 79.2683H91.0723Z" fill="#4672F1" fill-opacity="0.4"/>
<path fill-rule="evenodd" clip-rule="evenodd" d="M1.46484 79.2683L18.6971 44.8038L35.9293 79.2683H1.46484Z" fill="#4672F1" fill-opacity="0.4"/>
<path fill-rule="evenodd" clip-rule="evenodd" d="M89.6074 79.2683H127V81.8342C127 86.5977 125.03 91.1661 121.524 94.5344C118.018 97.9027 113.262 99.795 108.304 99.795C103.345 99.795 98.5896 97.9027 95.0834 94.5344C91.5772 91.1661 89.6074 86.5977 89.6074 81.8342V79.2683Z" fill="#333333"/>
<path fill-rule="evenodd" clip-rule="evenodd" d="M89.6104 79.2683V81.833C89.6117 84.5594 90.2591 87.2497 91.5035 89.7001C92.7479 92.1504 94.5567 94.2964 96.7927 95.9755C99.8026 94.549 102.853 92.9492 105.853 91.2232C112.293 87.5043 118.272 83.3367 123.005 79.2683H89.6104Z" fill="#676767"/>
<path fill-rule="evenodd" clip-rule="evenodd" d="M0 79.2683H37.3924V81.8342C37.3924 86.5977 35.4227 91.1661 31.9164 94.5344C28.4102 97.9027 23.6548 99.795 18.6962 99.795C13.7377 99.795 8.98222 97.9027 5.476 94.5344C1.96978 91.1661 3.9962e-06 86.5977 0 81.8342V79.2683Z" fill="#333333"/>
<path fill-rule="evenodd" clip-rule="evenodd" d="M5.25886e-05 79.2683L0 81.833C0.00131744 84.5594 0.648741 87.2497 1.89316 89.7001C3.13759 92.1504 4.94635 94.2964 7.18237 95.9755C10.1922 94.549 13.2423 92.9492 16.2428 91.2232C22.6827 87.5043 28.6618 83.3367 33.3942 79.2683H5.25886e-05Z" fill="#676767"/>
<path fill-rule="evenodd" clip-rule="evenodd" d="M63.5007 13.7185C62.5867 13.7185 61.7101 14.0816 61.0637 14.7279C60.4174 15.3743 60.0543 16.2509 60.0543 17.165V27.5043H8.35758C7.44352 27.5043 6.56691 27.8674 5.92057 28.5137C5.27424 29.1601 4.91113 30.0367 4.91113 30.9507C4.91113 31.8648 5.27424 32.7414 5.92057 33.3877C6.56691 34.0341 7.44352 34.3972 8.35758 34.3972H60.0543V117.112C60.0543 118.026 60.4174 118.903 61.0637 119.549C61.7101 120.195 62.5867 120.558 63.5007 120.558C64.4148 120.558 65.2914 120.195 65.9377 119.549C66.5841 118.903 66.9472 118.026 66.9472 117.112V34.3972H118.644C119.558 34.3972 120.435 34.0341 121.081 33.3877C121.727 32.7414 122.09 31.8648 122.09 30.9507C122.09 30.0367 121.727 29.1601 121.081 28.5137C120.435 27.8674 119.558 27.5043 118.644 27.5043H66.9472V17.165C66.9472 16.2509 66.5841 15.3743 65.9377 14.7279C65.2914 14.0816 64.4148 13.7185 63.5007 13.7185Z" fill="#1E3A8A"/>
<path fill-rule="evenodd" clip-rule="evenodd" d="M49.7152 117.179H77.2867C79.1148 117.179 80.8681 117.905 82.1607 119.198C83.4534 120.491 84.1796 122.244 84.1796 124.072V130.965H42.8223V124.072C42.8223 122.244 43.5485 120.491 44.8411 119.198C46.1338 117.905 47.887 117.179 49.7152 117.179Z" fill="#4672F1" fill-opacity="0.4"/>
<path fill-rule="evenodd" clip-rule="evenodd" d="M73.8399 10.3394C73.8399 11.6972 73.5725 13.0416 73.0529 14.2961C72.5332 15.5505 71.7717 16.6903 70.8116 17.6504C69.8514 18.6105 68.7117 19.3721 67.4572 19.8917C66.2028 20.4113 64.8583 20.6788 63.5005 20.6788C62.1427 20.6788 60.7982 20.4113 59.5438 19.8917C58.2894 19.3721 57.1496 18.6105 56.1895 17.6504C55.2294 16.6903 54.4678 15.5505 53.9482 14.2961C53.4286 13.0416 53.1611 11.6972 53.1611 10.3394C53.1611 8.98158 53.4286 7.63708 53.9482 6.38265C54.4678 5.12822 55.2294 3.98844 56.1895 3.02834C57.1496 2.06824 58.2894 1.30664 59.5438 0.787041C60.7982 0.26744 62.1427 -8.59926e-07 63.5005 0C64.8583 -8.59926e-07 66.2028 0.26744 67.4572 0.787041C68.7116 1.30664 69.8515 2.06824 70.8116 3.02834C71.7717 3.98844 72.5332 5.12822 73.0529 6.38265C73.5725 7.63708 73.8399 8.98158 73.8399 10.3394Z" fill="#4672F1"/>
</svg>
