<svg width="25" height="21" viewBox="0 0 25 21" fill="none" xmlns="http://www.w3.org/2000/svg">
<path d="M17.4848 20V17.8888C17.4848 16.769 17.0507 15.6951 16.2778 14.9033C15.5049 14.1115 14.4566 13.6666 13.3636 13.6666H5.12121C4.0282 13.6666 2.97995 14.1115 2.20708 14.9033C1.4342 15.6951 1 16.769 1 17.8888V20" stroke="black" stroke-width="2" stroke-linecap="round" stroke-linejoin="round"/>
<path d="M9.24231 9.44444C11.5184 9.44444 13.3635 7.55409 13.3635 5.22222C13.3635 2.89035 11.5184 1 9.24231 1C6.96622 1 5.12109 2.89035 5.12109 5.22222C5.12109 7.55409 6.96622 9.44444 9.24231 9.44444Z" stroke="black" stroke-width="2" stroke-linecap="round" stroke-linejoin="round"/>
<path d="M17.4854 9.44446H23.6672" stroke="black" stroke-width="2" stroke-linecap="round" stroke-linejoin="round"/>
<path d="M20.5762 6.27771V12.611" stroke="black" stroke-width="2" stroke-linecap="round" stroke-linejoin="round"/>
</svg>
