<svg width="130" height="130" viewBox="0 0 130 130" fill="none" xmlns="http://www.w3.org/2000/svg">
<path fill-rule="evenodd" clip-rule="evenodd" d="M64.9618 12.1113C64.0996 12.1113 63.2728 12.4537 62.6631 13.0632C62.0534 13.6727 61.7109 14.4994 61.7109 15.3613V33.522C61.7109 34.3839 62.0534 35.2105 62.6631 35.82C63.2728 36.4295 64.0996 36.772 64.9618 36.772C65.824 36.772 66.6509 36.4295 67.2606 35.82C67.8702 35.2105 68.2127 34.3839 68.2127 33.522V15.3613C68.2127 14.4994 67.8702 13.6727 67.2606 13.0632C66.6509 12.4537 65.824 12.1113 64.9618 12.1113Z" fill="#1E3A8A"/>
<path fill-rule="evenodd" clip-rule="evenodd" d="M96.4501 61.75C95.5879 61.75 94.7611 62.0924 94.1514 62.7019C93.5418 63.3114 93.1992 64.138 93.1992 65C93.1992 65.862 93.5418 66.6886 94.1514 67.2981C94.7611 67.9076 95.5879 68.25 96.4501 68.25H114.616C115.478 68.25 116.305 67.9076 116.915 67.2981C117.524 66.6886 117.867 65.862 117.867 65C117.867 64.138 117.524 63.3114 116.915 62.7019C116.305 62.0924 115.478 61.75 114.616 61.75H96.4501Z" fill="#1E3A8A"/>
<path fill-rule="evenodd" clip-rule="evenodd" d="M64.9812 94.2119C64.5543 94.2111 64.1314 94.2943 63.7366 94.4569C63.3419 94.6194 62.9831 94.8581 62.6806 95.1593C62.3781 95.4605 62.138 95.8183 61.9738 96.2123C61.8097 96.6063 61.7248 97.0288 61.724 97.4556L61.7109 114.639C61.7109 115.065 61.795 115.488 61.9584 115.882C62.1218 116.277 62.3612 116.635 62.6631 116.937C62.965 117.239 63.3234 117.478 63.7178 117.641C64.1122 117.805 64.5349 117.889 64.9618 117.889C65.3888 117.889 65.8115 117.805 66.2059 117.641C66.6003 117.478 66.9587 117.239 67.2606 116.937C67.5624 116.635 67.8019 116.277 67.9653 115.882C68.1287 115.488 68.2127 115.065 68.2127 114.639L68.2258 97.4619C68.2258 96.6011 67.8841 95.7754 67.2758 95.1661C66.6676 94.5567 65.8423 94.2136 64.9812 94.2119Z" fill="#1E3A8A"/>
<path fill-rule="evenodd" clip-rule="evenodd" d="M15.3476 61.7437C14.4854 61.7437 13.6585 62.0861 13.0488 62.6956C12.4392 63.3051 12.0967 64.1317 12.0967 64.9937C12.0967 65.8556 12.4392 66.6823 13.0488 67.2917C13.6585 67.9012 14.4854 68.2436 15.3476 68.2436H33.5069C34.3691 68.2436 35.196 67.9012 35.8056 67.2917C36.4153 66.6823 36.7578 65.8556 36.7578 64.9937C36.7578 64.1317 36.4153 63.3051 35.8056 62.6956C35.196 62.0861 34.3691 61.7437 33.5069 61.7437H15.3476Z" fill="#1E3A8A"/>
<path fill-rule="evenodd" clip-rule="evenodd" d="M94.2583 19.481C93.603 19.4815 92.9633 19.68 92.4228 20.0504C91.8823 20.4208 91.4664 20.9458 91.2296 21.5566L83.6802 41.063C83.3697 41.8669 83.3912 42.7611 83.7401 43.5491C84.089 44.3371 84.7366 44.9543 85.5405 45.2651C86.3438 45.5758 87.2377 45.5552 88.0258 45.2077C88.8139 44.8602 89.4318 44.2142 89.7438 43.4115L96.487 25.9809H114.564C115.426 25.9809 116.253 25.6385 116.862 25.029C117.472 24.4195 117.815 23.5929 117.815 22.731C117.815 21.869 117.472 21.0424 116.862 20.4329C116.253 19.8234 115.426 19.481 114.564 19.481H94.2583Z" fill="#1E3A8A"/>
<path fill-rule="evenodd" clip-rule="evenodd" d="M44.4215 84.7093C43.6174 84.3989 42.7229 84.4204 41.9346 84.7692C41.1464 85.1179 40.529 85.7654 40.2182 86.5692L33.4751 104H15.3984C14.5362 104 13.7093 104.342 13.0996 104.952C12.49 105.561 12.1475 106.388 12.1475 107.25C12.1475 108.112 12.49 108.938 13.0996 109.548C13.7093 110.157 14.5362 110.5 15.3984 110.5H35.7037C36.3601 110.501 37.0013 110.303 37.543 109.932C38.0847 109.562 38.5015 109.036 38.7387 108.424L46.2819 88.9115C46.5924 88.1076 46.5708 87.2133 46.222 86.4253C45.8731 85.6373 45.2255 85.02 44.4215 84.7093Z" fill="#1E3A8A"/>
<path fill-rule="evenodd" clip-rule="evenodd" d="M85.5406 84.7093C84.7366 85.02 84.0889 85.6373 83.7401 86.4253C83.3912 87.2133 83.3697 88.1076 83.6802 88.9115L91.2296 108.424C91.4664 109.035 91.8824 109.56 92.4228 109.93C92.9633 110.301 93.6031 110.499 94.2583 110.5H114.564C115.426 110.5 116.253 110.157 116.862 109.548C117.472 108.938 117.815 108.112 117.815 107.25C117.815 106.388 117.472 105.561 116.862 104.952C116.253 104.342 115.426 104 114.564 104H96.487L89.7439 86.5692C89.4331 85.7654 88.8157 85.1179 88.0275 84.7692C87.2392 84.4204 86.3447 84.3989 85.5406 84.7093Z" fill="#1E3A8A"/>
<path fill-rule="evenodd" clip-rule="evenodd" d="M15.3984 19.481C14.5362 19.481 13.7093 19.8234 13.0996 20.4329C12.49 21.0424 12.1475 21.869 12.1475 22.731C12.1475 23.1578 12.2315 23.5804 12.3949 23.9747C12.5583 24.369 12.7977 24.7273 13.0996 25.0291C13.4014 25.3308 13.7599 25.5702 14.1543 25.7336C14.5487 25.8969 14.9714 25.981 15.3984 25.981H33.4751L40.2182 43.4116C40.5302 44.2142 41.1482 44.8602 41.9363 45.2077C42.7244 45.5552 43.6182 45.5759 44.4215 45.2651C45.2255 44.9543 45.8731 44.3371 46.222 43.5491C46.5708 42.7611 46.5924 41.8669 46.2819 41.063L38.7387 21.5566C38.5015 20.9448 38.0847 20.4191 37.543 20.0486C37.0013 19.6781 36.3601 19.4802 35.7037 19.481H15.3984Z" fill="#1E3A8A"/>
<path fill-rule="evenodd" clip-rule="evenodd" d="M64.9829 114.638C60.7397 114.638 57.2998 118.077 57.2998 122.319C57.2998 126.561 60.7397 130 64.9829 130C69.2262 130 72.6661 126.561 72.6661 122.319C72.6661 118.077 69.2262 114.638 64.9829 114.638Z" fill="#4672F1"/>
<path fill-rule="evenodd" clip-rule="evenodd" d="M7.68802 30.4309C11.9313 30.4309 15.3712 26.992 15.3712 22.75C15.3712 18.5079 11.9313 15.0689 7.68802 15.069C3.44475 15.0689 0.00488281 18.5079 0.00488281 22.75C0.00488281 26.992 3.44475 30.4309 7.68802 30.4309Z" fill="#4672F1"/>
<path fill-rule="evenodd" clip-rule="evenodd" d="M96.4708 65C96.4708 82.3857 82.3731 96.4796 64.9825 96.4796C47.592 96.4796 33.4941 82.3857 33.4941 65C33.4941 47.6143 47.592 33.5204 64.9825 33.5204C82.3731 33.5204 96.4708 47.6143 96.4708 65Z" fill="#333333"/>
<path fill-rule="evenodd" clip-rule="evenodd" d="M64.9809 33.522C47.5904 33.522 33.4941 47.6143 33.4941 65C33.4941 71.5817 35.5191 77.6896 38.9737 82.7417C43.9157 85.8676 49.6712 87.5315 55.552 87.5342C59.5726 87.5346 63.5538 86.7583 67.2684 85.2496C70.9831 83.7409 74.3583 81.5294 77.2014 78.7413C80.0445 75.9532 82.2998 72.6432 83.8384 69.0003C85.3771 65.3573 86.1689 61.4529 86.1689 57.5098C86.1574 53.422 85.2949 49.3796 83.6343 45.6303C81.9737 41.881 79.5498 38.5038 76.5114 35.7056C72.9392 34.2988 69.0528 33.522 64.9809 33.522Z" fill="#676767"/>
<path fill-rule="evenodd" clip-rule="evenodd" d="M64.9825 41.0439C64.1153 41.0439 63.2837 41.3842 62.6704 41.9901C62.0572 42.5961 61.7126 43.4179 61.7125 44.2749V48.1533C57.4442 49.4843 54.2647 53.3392 54.2647 57.9414C54.2647 63.6617 59.1731 68.2309 64.9825 68.2309C67.406 68.2309 69.1667 69.9839 69.1667 72.0586C69.1667 74.1333 67.406 75.8862 64.9825 75.8862C62.5589 75.8862 60.7982 74.1333 60.7982 72.0586C60.799 71.6337 60.715 71.2128 60.551 70.8201C60.387 70.4273 60.1463 70.0704 59.8426 69.7697C59.5388 69.469 59.1781 69.2305 58.781 69.0677C58.3838 68.905 57.9582 68.8212 57.5283 68.8213C57.0989 68.8221 56.6739 68.9064 56.2775 69.0695C55.8811 69.2326 55.5211 69.4713 55.218 69.7719C54.915 70.0725 54.6748 70.4292 54.5112 70.8215C54.3477 71.2139 54.2639 71.6342 54.2647 72.0586C54.2647 76.6608 57.4442 80.5156 61.7125 81.8467V85.7251C61.7126 86.5821 62.0572 87.4039 62.6704 88.0098C63.2837 88.6158 64.1153 88.9561 64.9825 88.956C65.8496 88.9561 66.6813 88.6158 67.2945 88.0098C67.9077 87.4039 68.2523 86.5821 68.2524 85.7251V81.8467C72.5236 80.5173 75.7066 76.6628 75.7066 72.0586C75.7066 66.3383 70.7918 61.769 64.9825 61.769C62.5589 61.769 60.7982 60.0161 60.7982 57.9414C60.7982 55.8667 62.5589 54.1137 64.9825 54.1138C67.406 54.1138 69.1667 55.8667 69.1667 57.9414C69.1659 58.3663 69.2499 58.7871 69.4139 59.1799C69.5779 59.5726 69.8186 59.9296 70.1224 60.2303C70.4261 60.531 70.7868 60.7695 71.184 60.9323C71.5811 61.095 72.0068 61.1787 72.4367 61.1787C72.8666 61.1787 73.2923 61.095 73.6894 60.9323C74.0865 60.7695 74.4473 60.531 74.751 60.2303C75.0547 59.9296 75.2955 59.5726 75.4594 59.1799C75.6234 58.7871 75.7074 58.3663 75.7066 57.9414C75.7066 53.3371 72.5236 49.4826 68.2524 48.1533V44.2749C68.2523 43.4179 67.9077 42.5961 67.2945 41.9901C66.6813 41.3842 65.8496 41.0439 64.9825 41.0439Z" fill="#E5E9F6"/>
<path fill-rule="evenodd" clip-rule="evenodd" d="M72.6661 7.68101C72.6661 9.71813 71.8566 11.6718 70.4158 13.1123C68.9749 14.5528 67.0206 15.362 64.9829 15.362C63.974 15.362 62.9749 15.1633 62.0428 14.7773C61.1106 14.3913 60.2636 13.8255 59.5502 13.1123C58.8367 12.399 58.2708 11.5523 57.8846 10.6204C57.4985 9.68849 57.2998 8.68969 57.2998 7.68101C57.2998 6.67232 57.4985 5.67353 57.8846 4.74162C58.2708 3.80972 58.8367 2.96297 59.5502 2.24972C60.2636 1.53647 61.1106 0.970685 62.0428 0.584678C62.9749 0.198672 63.974 -9.38948e-07 64.9829 0C67.0206 6.72322e-06 68.9749 0.809255 70.4158 2.24972C71.8566 3.69019 72.6661 5.64388 72.6661 7.68101Z" fill="#4672F1"/>
<path fill-rule="evenodd" clip-rule="evenodd" d="M122.318 72.681C121.309 72.681 120.31 72.4823 119.378 72.0963C118.446 71.7103 117.599 71.1445 116.885 70.4313C116.172 69.718 115.606 68.8713 115.22 67.9394C114.833 67.0075 114.635 66.0087 114.635 65C114.635 63.9913 114.833 62.9925 115.22 62.0606C115.606 61.1287 116.172 60.2819 116.885 59.5687C117.599 58.8554 118.446 58.2897 119.378 57.9036C120.31 57.5176 121.309 57.319 122.318 57.319C123.327 57.319 124.326 57.5176 125.258 57.9036C126.19 58.2897 127.037 58.8554 127.751 59.5687C128.464 60.2819 129.03 61.1287 129.416 62.0606C129.802 62.9925 130.001 63.9913 130.001 65C130.001 66.0087 129.802 67.0075 129.416 67.9394C129.03 68.8713 128.464 69.718 127.751 70.4313C127.037 71.1445 126.19 71.7103 125.258 72.0963C124.326 72.4823 123.327 72.681 122.318 72.681Z" fill="#4672F1" fill-opacity="0.4"/>
<path fill-rule="evenodd" clip-rule="evenodd" d="M7.68313 57.311C9.72083 57.311 11.6751 58.1203 13.1159 59.5608C14.5568 61.0013 15.3663 62.9549 15.3663 64.9921C15.3663 67.0292 14.5568 68.9829 13.1159 70.4234C11.6751 71.8638 9.72083 72.6731 7.68313 72.6731C6.67417 72.6731 5.67512 72.4744 4.74296 72.0884C3.8108 71.7024 2.96377 71.1366 2.25032 70.4234C1.53687 69.7101 0.970954 68.8634 0.58484 67.9315C0.198727 66.9995 -9.39209e-07 66.0008 0 64.9921C-9.39209e-07 63.9834 0.198727 62.9846 0.58484 62.0527C0.970954 61.1208 1.53687 60.274 2.25032 59.5608C2.96377 58.8475 3.8108 58.2817 4.74296 57.8957C5.67512 57.5097 6.67417 57.311 7.68313 57.311Z" fill="#4672F1"/>
<path fill-rule="evenodd" clip-rule="evenodd" d="M122.318 30.431C118.075 30.431 114.635 26.9921 114.635 22.75C114.635 18.5079 118.075 15.069 122.318 15.069C126.561 15.069 130.001 18.5079 130.001 22.75C130.001 26.9921 126.561 30.431 122.318 30.431Z" fill="#4672F1"/>
<path fill-rule="evenodd" clip-rule="evenodd" d="M7.68802 99.548C11.9313 99.548 15.3712 102.987 15.3712 107.229C15.3712 111.471 11.9313 114.91 7.68802 114.91C3.44475 114.91 0.00488281 111.471 0.00488281 107.229C0.00488281 102.987 3.44475 99.548 7.68802 99.548Z" fill="#4672F1" fill-opacity="0.4"/>
<path fill-rule="evenodd" clip-rule="evenodd" d="M122.318 99.548C118.075 99.548 114.635 102.987 114.635 107.229C114.635 111.471 118.075 114.91 122.318 114.91C126.561 114.91 130.001 111.471 130.001 107.229C130.001 102.987 126.561 99.548 122.318 99.548Z" fill="#4672F1"/>
</svg>
