<svg width="86" height="87" viewBox="0 0 86 87" fill="none" xmlns="http://www.w3.org/2000/svg">
<path d="M43.0109 43.011C49.64 43.011 55.0139 37.637 55.0139 31.0079C55.0139 24.3788 49.64 19.0049 43.0109 19.0049C36.3818 19.0049 31.0078 24.3788 31.0078 31.0079C31.0078 37.637 36.3818 43.011 43.0109 43.011Z" stroke="#4672F1" stroke-width="5"/>
<path d="M66.8944 75.0173C66.2579 63.4484 62.7158 55.0122 43.0115 55.0122C23.3078 55.0122 19.7657 63.4484 19.1289 75.0173" stroke="#4672F1" stroke-width="5" stroke-linecap="round"/>
<path d="M23.0051 8.35264C28.8901 4.94838 35.7227 3 43.0102 3C65.107 3 83.0204 20.9132 83.0204 43.0102C83.0204 65.107 65.107 83.0204 43.0102 83.0204C20.9132 83.0204 3 65.107 3 43.0102C3 35.7227 4.94838 28.8901 8.35264 23.0051" stroke="#4672F1" stroke-width="5" stroke-linecap="round"/>
<circle cx="73.0185" cy="74.0707" r="12.1083" fill="#F6F6F6"/>
<path fill-rule="evenodd" clip-rule="evenodd" d="M77.8613 69.6599H76.6289L76.2181 68.8382C75.9761 68.3605 75.85 68.0166 75.3964 68.0166H70.4666C70.013 68.0166 69.8627 68.4085 69.6449 68.8382L69.2341 69.6599H68.0017C67.0942 69.6599 66.3584 70.3957 66.3584 71.3032V77.8763C66.3584 78.7838 67.0942 79.5195 68.0017 79.5195H77.8613C78.7688 79.5195 79.5046 78.7838 79.5046 77.8763V71.3032C79.5046 70.3957 78.7688 69.6599 77.8613 69.6599ZM72.9315 77.8763C71.1165 77.8763 69.6449 76.4047 69.6449 74.5897C69.6449 72.7747 71.1165 71.3032 72.9315 71.3032C74.7465 71.3032 76.2181 72.7747 76.2181 74.5897C76.2181 76.4047 74.7465 77.8763 72.9315 77.8763ZM72.9315 72.1248C71.5705 72.1248 70.4666 73.2287 70.4666 74.5897C70.4666 75.9507 71.5705 77.0546 72.9315 77.0546C74.2925 77.0546 75.3964 75.9507 75.3964 74.5897C75.3964 73.2287 74.2925 72.1248 72.9315 72.1248Z" fill="#4672F1"/>
</svg>
