<svg width="54" height="60" viewBox="0 0 54 60" fill="none" xmlns="http://www.w3.org/2000/svg">
<path d="M46.0024 14.9757V1.65716C45.8245 -0.170752 44.1845 -0.141102 43.641 0.145463L17.6856 12.2783H1.66972C0.750879 12.2783 0 13.0194 0 13.948V34.0149C0 34.9338 0.741097 35.6847 1.66972 35.6847H3.17148L7.77564 58.6662C7.93367 59.4467 8.61547 60 9.40593 60H18.5748H18.5847C19.5036 60 20.2545 59.259 20.2545 58.3302C20.2545 58.1426 15.7293 35.6749 15.7293 35.6749H17.6757L43.6213 47.8078C45.5875 48.292 45.9827 46.8594 45.9827 46.2962V32.9776C50.251 32.1872 53.4819 28.4525 53.4819 23.9668C53.5016 19.4909 50.2707 15.7661 46.0024 14.9757ZM16.5395 56.6604H10.7793L6.57038 35.6747H12.3306L16.5395 56.6604ZM16.7174 32.3451H3.33945V15.6079H16.7173L16.7174 32.3451ZM42.6728 43.6678L20.0569 33.0959V27.8396H20.7387C21.6575 27.8396 22.4084 27.0985 22.4084 26.1699C22.4084 25.2511 21.6674 24.5002 20.7387 24.5002H20.0569V21.1705H24.0682C24.987 21.1705 25.7379 20.4296 25.7379 19.5008C25.7379 18.582 24.9968 17.8311 24.0682 17.8311H20.0569V14.8274L42.6728 4.2555V43.6678ZM46.0024 29.5688V18.3943C48.4133 19.1155 50.1719 21.3484 50.1719 23.9766C50.1719 26.6145 48.4133 28.8476 46.0024 29.5688Z" fill="#333333"/>
</svg>
