<svg width="54" height="55" viewBox="0 0 54 55" fill="none" xmlns="http://www.w3.org/2000/svg">
<path d="M41.8742 15.3031C41.7242 15.2781 41.5492 15.2781 41.3992 15.3031C37.9492 15.1781 35.1992 12.3531 35.1992 8.85308C35.1992 5.27808 38.0742 2.40308 41.6492 2.40308C45.2242 2.40308 48.0992 5.30308 48.0992 8.85308C48.0742 12.3531 45.3242 15.1781 41.8742 15.3031Z" stroke="#333333" stroke-width="3.75" stroke-linecap="round" stroke-linejoin="round"/>
<path d="M39.2996 33.503C42.7246 34.078 46.4996 33.478 49.1496 31.703C52.6746 29.353 52.6746 25.503 49.1496 23.153C46.4746 21.3781 42.6496 20.7781 39.2246 21.3781" stroke="#333333" stroke-width="3.75" stroke-linecap="round" stroke-linejoin="round"/>
<path d="M11.7992 15.3031C11.9492 15.2781 12.1242 15.2781 12.2742 15.3031C15.7242 15.1781 18.4742 12.3531 18.4742 8.85308C18.4742 5.27808 15.5992 2.40308 12.0242 2.40308C8.44922 2.40308 5.57422 5.30308 5.57422 8.85308C5.59922 12.3531 8.34922 15.1781 11.7992 15.3031Z" stroke="#333333" stroke-width="3.75" stroke-linecap="round" stroke-linejoin="round"/>
<path d="M14.3746 33.503C10.9496 34.078 7.17461 33.478 4.52461 31.703C0.999609 29.353 0.999609 25.503 4.52461 23.153C7.19961 21.3781 11.0246 20.7781 14.4496 21.3781" stroke="#333333" stroke-width="3.75" stroke-linecap="round" stroke-linejoin="round"/>
<path d="M26.8743 33.9781C26.7243 33.9531 26.5493 33.9531 26.3993 33.9781C22.9493 33.8531 20.1992 31.0281 20.1992 27.5281C20.1992 23.9531 23.0743 21.078 26.6493 21.078C30.2243 21.078 33.0993 23.9781 33.0993 27.5281C33.0743 31.0281 30.3243 33.8781 26.8743 33.9781Z" stroke="#333333" stroke-width="3.75" stroke-linecap="round" stroke-linejoin="round"/>
<path d="M19.6008 41.8531C16.0758 44.2031 16.0758 48.0531 19.6008 50.4031C23.6009 53.0781 30.1509 53.0781 34.1509 50.4031C37.6759 48.0531 37.6759 44.2031 34.1509 41.8531C30.1759 39.2031 23.6009 39.2031 19.6008 41.8531Z" stroke="#333333" stroke-width="3.75" stroke-linecap="round" stroke-linejoin="round"/>
</svg>
