<svg width="24" height="26" viewBox="0 0 24 26" fill="none" xmlns="http://www.w3.org/2000/svg">
<path fill-rule="evenodd" clip-rule="evenodd" d="M18.3301 23.1538C16.7315 23.1538 15.4359 21.8582 15.4359 20.2596C15.4359 18.661 16.7315 17.3654 18.3301 17.3654C19.9287 17.3654 21.2244 18.661 21.2244 20.2596C21.2244 21.8582 19.9287 23.1538 18.3301 23.1538ZM4.82372 15.4359C3.22514 15.4359 1.92949 14.1402 1.92949 12.5417C1.92949 10.9441 3.22514 9.64744 4.82372 9.64744C6.4223 9.64744 7.71795 10.9441 7.71795 12.5417C7.71795 14.1402 6.4223 15.4359 4.82372 15.4359ZM18.3301 1.92949C19.9287 1.92949 21.2244 3.22514 21.2244 4.82372C21.2244 6.4223 19.9287 7.71795 18.3301 7.71795C16.7315 7.71795 15.4359 6.4223 15.4359 4.82372C15.4359 3.22514 16.7315 1.92949 18.3301 1.92949ZM18.3301 15.4359C16.6225 15.4359 15.132 16.3283 14.2743 17.6664L9.10815 14.7143C9.44195 14.0583 9.64744 13.327 9.64744 12.5417C9.64744 12.0564 9.55387 11.5972 9.42074 11.1553L14.7953 8.08456C15.6761 9.03965 16.9284 9.64744 18.3301 9.64744C20.9948 9.64744 23.1538 7.48834 23.1538 4.82372C23.1538 2.1591 20.9948 0 18.3301 0C15.6655 0 13.5064 2.1591 13.5064 4.82372C13.5064 5.30898 13.6 5.76819 13.7331 6.21101L8.35854 9.28083C7.47773 8.3267 6.22549 7.71795 4.82372 7.71795C2.1591 7.71795 0 9.87704 0 12.5417C0 15.2063 2.1591 17.3654 4.82372 17.3654C5.92353 17.3654 6.92588 16.9833 7.73723 16.364L7.71795 16.4006L13.5595 19.7387C13.5402 19.9123 13.5064 20.0802 13.5064 20.2596C13.5064 22.9242 15.6655 25.0833 18.3301 25.0833C20.9948 25.0833 23.1538 22.9242 23.1538 20.2596C23.1538 17.595 20.9948 15.4359 18.3301 15.4359Z" fill="#333333"/>
</svg>
